<svg width="12" height="13" viewBox="0 0 12 13" fill="none" xmlns="http://www.w3.org/2000/svg">
<path d="M10.7143 6.50001H4.07143V3.88224C4.07143 2.87678 4.92054 2.04143 5.98125 2.03127C7.05268 2.02111 7.92857 2.84631 7.92857 3.85939V4.26564C7.92857 4.60334 8.21518 4.87502 8.57143 4.87502H9.42857C9.78482 4.87502 10.0714 4.60334 10.0714 4.26564V3.85939C10.0714 1.72658 8.23661 -0.00759218 5.98661 2.49975e-05C3.73661 0.00764217 1.92857 1.76467 1.92857 3.89748V6.50001H1.28571C0.575893 6.50001 0 7.04591 0 7.71876V11.7813C0 12.4541 0.575893 13 1.28571 13H10.7143C11.4241 13 12 12.4541 12 11.7813V7.71876C12 7.04591 11.4241 6.50001 10.7143 6.50001ZM7.07143 10.3594C7.07143 10.9205 6.59196 11.375 6 11.375C5.40804 11.375 4.92857 10.9205 4.92857 10.3594V9.14063C4.92857 8.5795 5.40804 8.12501 6 8.12501C6.59196 8.12501 7.07143 8.5795 7.07143 9.14063V10.3594Z" fill="white"/>
</svg>
